# xmcd
#
# Track frame offsets: 
#        150
#        9860
#        21373
#        32868
#        46978
#        60225
#        73910
#        86493
#        97448
#        110490
#        120623
#        134443
#        147350
#        158463
#        169878
#        180260
#        191940
#        202083
#
# Disc length: 2923 seconds
#
# Revision: 6
# Processed by: cddbd v1.5.2PL0 Copyright (c) Steve Scherf et al.
# Submitted via: ExactAudioCopyFreeDBPlugin 1.0
#
DISCID=000b6912
DTITLE=Willie Nelson - Nite Life: Greatest Hits and Rare Tracks (1959-19
DTITLE=71)
DYEAR=1990
DGENRE=Country
TTITLE0=Man with the Blues
TTITLE1=What a Way to Live
TTITLE2=Nite Life
TTITLE3=Rainy Day Blues
TTITLE4=You'll Always Have Someone
TTITLE5=Everything But You
TTITLE6=Mr. Record Man
TTITLE7=Hello Walls
TTITLE8=Crazy
TTITLE9=Touch Me
TTITLE10=Funny How Time Slips Away
TTITLE11=Am I Blue
TTITLE12=Half a Man
TTITLE13=Opportunity to Cry
TTITLE14=San Antonio Rose
TTITLE15=One in a Row
TTITLE16=Bring Me Sunshine
TTITLE17=Me and Paul
EXTD=YEAR: 1990 ID3G:   2
EXTT0=
EXTT1=
EXTT2=
EXTT3=
EXTT4=
EXTT5=
EXTT6=
EXTT7=
EXTT8=
EXTT9=
EXTT10=
EXTT11=
EXTT12=
EXTT13=
EXTT14=
EXTT15=
EXTT16=
EXTT17=
PLAYORDER=
